<mxfile host="app.diagrams.net" modified="2022-08-08T14:33:28.285Z" agent="5.0 (Macintosh; Intel Mac OS X 10_15_7) AppleWebKit/537.36 (KHTML, like Gecko) Chrome/103.0.0.0 Safari/537.36" etag="SQsFUm7zabaNm_L4EpTT" version="20.2.3" type="github">
  <diagram id="KQw1xRx-27sTIVIaCVil" name="第 1 页">
    <mxGraphModel dx="1094" dy="699" grid="1" gridSize="10" guides="1" tooltips="1" connect="1" arrows="1" fold="1" page="1" pageScale="1" pageWidth="827" pageHeight="1169" math="0" shadow="0">
      <root>
        <mxCell id="0" />
        <mxCell id="1" parent="0" />
        <mxCell id="_1Btui5-MEUtpj_ysXOn-18" value="" style="edgeStyle=orthogonalEdgeStyle;rounded=0;orthogonalLoop=1;jettySize=auto;html=1;" edge="1" parent="1" source="_1Btui5-MEUtpj_ysXOn-1" target="_1Btui5-MEUtpj_ysXOn-4">
          <mxGeometry relative="1" as="geometry" />
        </mxCell>
        <mxCell id="_1Btui5-MEUtpj_ysXOn-1" value="&lt;font style=&quot;font-size: 14px;&quot;&gt;极速版&lt;/font&gt;" style="ellipse;whiteSpace=wrap;html=1;aspect=fixed;" vertex="1" parent="1">
          <mxGeometry x="50" y="200" width="80" height="80" as="geometry" />
        </mxCell>
        <mxCell id="_1Btui5-MEUtpj_ysXOn-21" value="" style="edgeStyle=orthogonalEdgeStyle;rounded=0;orthogonalLoop=1;jettySize=auto;html=1;" edge="1" parent="1" source="_1Btui5-MEUtpj_ysXOn-2" target="_1Btui5-MEUtpj_ysXOn-6">
          <mxGeometry relative="1" as="geometry" />
        </mxCell>
        <mxCell id="_1Btui5-MEUtpj_ysXOn-2" value="&lt;font style=&quot;font-size: 14px;&quot;&gt;主端&lt;/font&gt;" style="ellipse;whiteSpace=wrap;html=1;aspect=fixed;" vertex="1" parent="1">
          <mxGeometry x="50" y="420" width="80" height="80" as="geometry" />
        </mxCell>
        <mxCell id="_1Btui5-MEUtpj_ysXOn-22" value="" style="edgeStyle=orthogonalEdgeStyle;rounded=0;orthogonalLoop=1;jettySize=auto;html=1;" edge="1" parent="1" source="_1Btui5-MEUtpj_ysXOn-3" target="_1Btui5-MEUtpj_ysXOn-8">
          <mxGeometry relative="1" as="geometry" />
        </mxCell>
        <mxCell id="_1Btui5-MEUtpj_ysXOn-3" value="&lt;font style=&quot;font-size: 14px;&quot;&gt;浏览器&lt;/font&gt;" style="ellipse;whiteSpace=wrap;html=1;aspect=fixed;" vertex="1" parent="1">
          <mxGeometry x="50" y="640" width="80" height="80" as="geometry" />
        </mxCell>
        <mxCell id="_1Btui5-MEUtpj_ysXOn-19" style="edgeStyle=orthogonalEdgeStyle;rounded=0;orthogonalLoop=1;jettySize=auto;html=1;exitX=1;exitY=0.5;exitDx=0;exitDy=0;entryX=0;entryY=0.5;entryDx=0;entryDy=0;" edge="1" parent="1" source="_1Btui5-MEUtpj_ysXOn-4" target="_1Btui5-MEUtpj_ysXOn-12">
          <mxGeometry relative="1" as="geometry" />
        </mxCell>
        <mxCell id="_1Btui5-MEUtpj_ysXOn-4" value="&lt;font style=&quot;font-size: 14px;&quot;&gt;极速版网关&lt;/font&gt;" style="rounded=0;whiteSpace=wrap;html=1;" vertex="1" parent="1">
          <mxGeometry x="220" y="210" width="120" height="60" as="geometry" />
        </mxCell>
        <mxCell id="_1Btui5-MEUtpj_ysXOn-23" style="edgeStyle=orthogonalEdgeStyle;rounded=0;orthogonalLoop=1;jettySize=auto;html=1;exitX=1;exitY=0.5;exitDx=0;exitDy=0;entryX=0;entryY=0.5;entryDx=0;entryDy=0;" edge="1" parent="1" source="_1Btui5-MEUtpj_ysXOn-6" target="_1Btui5-MEUtpj_ysXOn-14">
          <mxGeometry relative="1" as="geometry" />
        </mxCell>
        <mxCell id="_1Btui5-MEUtpj_ysXOn-6" value="&lt;font style=&quot;font-size: 14px;&quot;&gt;主端网关&lt;/font&gt;" style="rounded=0;whiteSpace=wrap;html=1;" vertex="1" parent="1">
          <mxGeometry x="220" y="430" width="120" height="60" as="geometry" />
        </mxCell>
        <mxCell id="_1Btui5-MEUtpj_ysXOn-24" style="edgeStyle=orthogonalEdgeStyle;rounded=0;orthogonalLoop=1;jettySize=auto;html=1;exitX=1;exitY=0.5;exitDx=0;exitDy=0;entryX=0;entryY=0.5;entryDx=0;entryDy=0;" edge="1" parent="1" source="_1Btui5-MEUtpj_ysXOn-8" target="_1Btui5-MEUtpj_ysXOn-16">
          <mxGeometry relative="1" as="geometry" />
        </mxCell>
        <mxCell id="_1Btui5-MEUtpj_ysXOn-8" value="&lt;font style=&quot;font-size: 14px;&quot;&gt;浏览器网关&lt;/font&gt;" style="rounded=0;whiteSpace=wrap;html=1;" vertex="1" parent="1">
          <mxGeometry x="220" y="650" width="120" height="60" as="geometry" />
        </mxCell>
        <mxCell id="_1Btui5-MEUtpj_ysXOn-20" value="" style="edgeStyle=orthogonalEdgeStyle;rounded=0;orthogonalLoop=1;jettySize=auto;html=1;" edge="1" parent="1" source="_1Btui5-MEUtpj_ysXOn-12" target="_1Btui5-MEUtpj_ysXOn-13">
          <mxGeometry relative="1" as="geometry" />
        </mxCell>
        <mxCell id="_1Btui5-MEUtpj_ysXOn-12" value="&lt;font style=&quot;font-size: 14px;&quot;&gt;任务映射&lt;/font&gt;" style="rounded=0;whiteSpace=wrap;html=1;" vertex="1" parent="1">
          <mxGeometry x="460" y="210" width="120" height="60" as="geometry" />
        </mxCell>
        <mxCell id="_1Btui5-MEUtpj_ysXOn-13" value="&lt;font style=&quot;font-size: 14px;&quot;&gt;任务处理逻辑&lt;/font&gt;" style="rounded=0;whiteSpace=wrap;html=1;" vertex="1" parent="1">
          <mxGeometry x="460" y="310" width="120" height="60" as="geometry" />
        </mxCell>
        <mxCell id="_1Btui5-MEUtpj_ysXOn-25" value="" style="edgeStyle=orthogonalEdgeStyle;rounded=0;orthogonalLoop=1;jettySize=auto;html=1;" edge="1" parent="1" source="_1Btui5-MEUtpj_ysXOn-14" target="_1Btui5-MEUtpj_ysXOn-15">
          <mxGeometry relative="1" as="geometry" />
        </mxCell>
        <mxCell id="_1Btui5-MEUtpj_ysXOn-14" value="&lt;font style=&quot;font-size: 14px;&quot;&gt;任务映射&lt;/font&gt;" style="rounded=0;whiteSpace=wrap;html=1;" vertex="1" parent="1">
          <mxGeometry x="460" y="430" width="120" height="60" as="geometry" />
        </mxCell>
        <mxCell id="_1Btui5-MEUtpj_ysXOn-15" value="&lt;font style=&quot;font-size: 14px;&quot;&gt;任务处理逻辑&lt;/font&gt;" style="rounded=0;whiteSpace=wrap;html=1;" vertex="1" parent="1">
          <mxGeometry x="460" y="520" width="120" height="60" as="geometry" />
        </mxCell>
        <mxCell id="_1Btui5-MEUtpj_ysXOn-26" value="" style="edgeStyle=orthogonalEdgeStyle;rounded=0;orthogonalLoop=1;jettySize=auto;html=1;" edge="1" parent="1" source="_1Btui5-MEUtpj_ysXOn-16" target="_1Btui5-MEUtpj_ysXOn-17">
          <mxGeometry relative="1" as="geometry" />
        </mxCell>
        <mxCell id="_1Btui5-MEUtpj_ysXOn-16" value="&lt;font style=&quot;font-size: 14px;&quot;&gt;任务映射&lt;/font&gt;" style="rounded=0;whiteSpace=wrap;html=1;" vertex="1" parent="1">
          <mxGeometry x="460" y="650" width="120" height="60" as="geometry" />
        </mxCell>
        <mxCell id="_1Btui5-MEUtpj_ysXOn-17" value="&lt;font style=&quot;font-size: 14px;&quot;&gt;任务处理逻辑&lt;/font&gt;" style="rounded=0;whiteSpace=wrap;html=1;" vertex="1" parent="1">
          <mxGeometry x="460" y="745" width="120" height="60" as="geometry" />
        </mxCell>
        <mxCell id="_1Btui5-MEUtpj_ysXOn-27" value="" style="endArrow=none;dashed=1;html=1;rounded=0;" edge="1" parent="1">
          <mxGeometry width="50" height="50" relative="1" as="geometry">
            <mxPoint x="170" y="840" as="sourcePoint" />
            <mxPoint x="170" y="150" as="targetPoint" />
          </mxGeometry>
        </mxCell>
        <mxCell id="_1Btui5-MEUtpj_ysXOn-28" value="" style="endArrow=none;dashed=1;html=1;rounded=0;" edge="1" parent="1">
          <mxGeometry width="50" height="50" relative="1" as="geometry">
            <mxPoint x="400" y="840" as="sourcePoint" />
            <mxPoint x="400" y="150" as="targetPoint" />
          </mxGeometry>
        </mxCell>
        <mxCell id="_1Btui5-MEUtpj_ysXOn-29" value="&lt;b&gt;&lt;font style=&quot;font-size: 18px;&quot;&gt;客户端&lt;/font&gt;&lt;/b&gt;" style="text;html=1;align=center;verticalAlign=middle;resizable=0;points=[];autosize=1;strokeColor=none;fillColor=none;" vertex="1" parent="1">
          <mxGeometry x="40" y="100" width="80" height="40" as="geometry" />
        </mxCell>
        <mxCell id="_1Btui5-MEUtpj_ysXOn-30" value="&lt;b&gt;&lt;font style=&quot;font-size: 18px;&quot;&gt;网关层&lt;/font&gt;&lt;/b&gt;" style="text;html=1;align=center;verticalAlign=middle;resizable=0;points=[];autosize=1;strokeColor=none;fillColor=none;" vertex="1" parent="1">
          <mxGeometry x="240" y="100" width="80" height="40" as="geometry" />
        </mxCell>
        <mxCell id="_1Btui5-MEUtpj_ysXOn-31" value="&lt;span style=&quot;font-size: 18px;&quot;&gt;&lt;b&gt;服务层&lt;/b&gt;&lt;/span&gt;" style="text;html=1;align=center;verticalAlign=middle;resizable=0;points=[];autosize=1;strokeColor=none;fillColor=none;" vertex="1" parent="1">
          <mxGeometry x="480" y="100" width="80" height="40" as="geometry" />
        </mxCell>
      </root>
    </mxGraphModel>
  </diagram>
</mxfile>
